<mxfile host="app.diagrams.net" modified="2022-08-05T03:06:02.405Z" agent="5.0 (Macintosh; Intel Mac OS X 10_15_7) AppleWebKit/537.36 (KHTML, like Gecko) Chrome/103.0.0.0 Safari/537.36" etag="r-Plc2WTCS0YDVxhXV_f" version="20.2.3" type="github">
  <diagram id="YMvDqEujlP4_QE2vM9mp" name="第 1 页">
    <mxGraphModel dx="1143" dy="798" grid="1" gridSize="10" guides="1" tooltips="1" connect="1" arrows="1" fold="1" page="1" pageScale="1" pageWidth="1169" pageHeight="1654" math="0" shadow="0">
      <root>
        <mxCell id="0" />
        <mxCell id="1" parent="0" />
        <mxCell id="gQQ2enZ3S59gA13OgKWl-1" value="" style="endArrow=classic;html=1;rounded=0;strokeWidth=2;" edge="1" parent="1">
          <mxGeometry width="50" height="50" relative="1" as="geometry">
            <mxPoint x="360" y="550" as="sourcePoint" />
            <mxPoint x="360" y="110" as="targetPoint" />
          </mxGeometry>
        </mxCell>
        <mxCell id="gQQ2enZ3S59gA13OgKWl-2" value="" style="endArrow=classic;html=1;rounded=0;strokeWidth=2;" edge="1" parent="1">
          <mxGeometry width="50" height="50" relative="1" as="geometry">
            <mxPoint x="330" y="520" as="sourcePoint" />
            <mxPoint x="940" y="520" as="targetPoint" />
          </mxGeometry>
        </mxCell>
        <mxCell id="gQQ2enZ3S59gA13OgKWl-3" value="&lt;b&gt;&lt;font style=&quot;font-size: 18px;&quot;&gt;Time&lt;/font&gt;&lt;/b&gt;" style="text;html=1;align=center;verticalAlign=middle;resizable=0;points=[];autosize=1;strokeColor=none;fillColor=none;" vertex="1" parent="1">
          <mxGeometry x="950" y="500" width="70" height="40" as="geometry" />
        </mxCell>
        <mxCell id="gQQ2enZ3S59gA13OgKWl-6" value="" style="endArrow=none;html=1;rounded=0;fontSize=18;strokeWidth=3;" edge="1" parent="1">
          <mxGeometry width="50" height="50" relative="1" as="geometry">
            <mxPoint x="360" y="270" as="sourcePoint" />
            <mxPoint x="520" y="270" as="targetPoint" />
          </mxGeometry>
        </mxCell>
        <mxCell id="gQQ2enZ3S59gA13OgKWl-7" value="" style="endArrow=none;html=1;rounded=0;fontSize=18;strokeWidth=3;dashed=1;" edge="1" parent="1">
          <mxGeometry width="50" height="50" relative="1" as="geometry">
            <mxPoint x="360" y="360" as="sourcePoint" />
            <mxPoint x="520" y="360" as="targetPoint" />
          </mxGeometry>
        </mxCell>
        <mxCell id="gQQ2enZ3S59gA13OgKWl-8" value="" style="endArrow=none;html=1;rounded=0;fontSize=18;strokeWidth=3;" edge="1" parent="1">
          <mxGeometry width="50" height="50" relative="1" as="geometry">
            <mxPoint x="680" y="270" as="sourcePoint" />
            <mxPoint x="840" y="270" as="targetPoint" />
          </mxGeometry>
        </mxCell>
        <mxCell id="gQQ2enZ3S59gA13OgKWl-9" value="" style="endArrow=none;html=1;rounded=0;fontSize=18;strokeWidth=3;dashed=1;" edge="1" parent="1">
          <mxGeometry width="50" height="50" relative="1" as="geometry">
            <mxPoint x="520" y="270" as="sourcePoint" />
            <mxPoint x="680" y="270" as="targetPoint" />
          </mxGeometry>
        </mxCell>
        <mxCell id="gQQ2enZ3S59gA13OgKWl-10" value="" style="endArrow=none;html=1;rounded=0;fontSize=18;strokeWidth=3;" edge="1" parent="1">
          <mxGeometry width="50" height="50" relative="1" as="geometry">
            <mxPoint x="520" y="360" as="sourcePoint" />
            <mxPoint x="680" y="360" as="targetPoint" />
          </mxGeometry>
        </mxCell>
        <mxCell id="gQQ2enZ3S59gA13OgKWl-11" value="" style="endArrow=none;html=1;rounded=0;fontSize=18;strokeWidth=3;dashed=1;" edge="1" parent="1">
          <mxGeometry width="50" height="50" relative="1" as="geometry">
            <mxPoint x="687" y="360" as="sourcePoint" />
            <mxPoint x="847" y="360" as="targetPoint" />
          </mxGeometry>
        </mxCell>
        <mxCell id="gQQ2enZ3S59gA13OgKWl-13" value="" style="endArrow=classic;html=1;rounded=0;fontSize=18;strokeWidth=3;" edge="1" parent="1">
          <mxGeometry width="50" height="50" relative="1" as="geometry">
            <mxPoint x="850" y="360" as="sourcePoint" />
            <mxPoint x="940" y="360" as="targetPoint" />
          </mxGeometry>
        </mxCell>
        <mxCell id="gQQ2enZ3S59gA13OgKWl-14" value="" style="endArrow=classic;html=1;rounded=0;fontSize=18;strokeWidth=3;dashed=1;" edge="1" parent="1">
          <mxGeometry width="50" height="50" relative="1" as="geometry">
            <mxPoint x="840" y="270" as="sourcePoint" />
            <mxPoint x="940" y="270" as="targetPoint" />
          </mxGeometry>
        </mxCell>
        <mxCell id="gQQ2enZ3S59gA13OgKWl-15" value="&lt;b&gt;Thread A&lt;/b&gt;" style="text;html=1;align=center;verticalAlign=middle;resizable=0;points=[];autosize=1;strokeColor=none;fillColor=none;fontSize=18;" vertex="1" parent="1">
          <mxGeometry x="250" y="240" width="100" height="40" as="geometry" />
        </mxCell>
        <mxCell id="gQQ2enZ3S59gA13OgKWl-16" value="&lt;b&gt;Thread B&lt;/b&gt;" style="text;html=1;align=center;verticalAlign=middle;resizable=0;points=[];autosize=1;strokeColor=none;fillColor=none;fontSize=18;" vertex="1" parent="1">
          <mxGeometry x="250" y="340" width="100" height="40" as="geometry" />
        </mxCell>
        <mxCell id="gQQ2enZ3S59gA13OgKWl-18" value="" style="shape=curlyBracket;whiteSpace=wrap;html=1;rounded=1;flipH=1;fontSize=18;strokeWidth=2;" vertex="1" parent="1">
          <mxGeometry x="960" y="270" width="20" height="90" as="geometry" />
        </mxCell>
        <mxCell id="gQQ2enZ3S59gA13OgKWl-19" value="&lt;b&gt;Single core&lt;/b&gt;" style="text;html=1;align=center;verticalAlign=middle;resizable=0;points=[];autosize=1;strokeColor=none;fillColor=none;fontSize=18;" vertex="1" parent="1">
          <mxGeometry x="975" y="295" width="120" height="40" as="geometry" />
        </mxCell>
      </root>
    </mxGraphModel>
  </diagram>
</mxfile>
